<svg xmlns="http://www.w3.org/2000/svg" width="24" height="24" viewBox="0 0 24 24"><defs><clipPath id="37zja"><path fill="#fff" d="M0 12C0 5.373 5.373 0 12 0s12 5.373 12 12-5.373 12-12 12S0 18.627 0 12z"/></clipPath></defs><g><g><g><path fill="#fff" d="M0 12C0 5.373 5.373 0 12 0s12 5.373 12 12-5.373 12-12 12S0 18.627 0 12z"/><path fill="none" stroke="#90aee8" stroke-miterlimit="50" stroke-width="4" d="M0 12C0 5.373 5.373 0 12 0s12 5.373 12 12-5.373 12-12 12S0 18.627 0 12z" clip-path="url(&quot;#37zja&quot;)"/></g><g><path fill="#90aee8" d="M11 7c0-.5.5-1 1-1s1 .5 1 1v10c0 .5-.5 1-1 1s-1-.5-1-1z"/></g><g><path fill="#90aee8" d="M17 11c.5 0 1 .5 1 1s-.5 1-1 1H7c-.5 0-1-.5-1-1s.5-1 1-1z"/></g></g></g></svg>