<svg xmlns="http://www.w3.org/2000/svg" width="32" height="32" viewBox="0 0 32 32"><g><g><g><path fill="#097ade" d="M29.143 26.375l-2.769 2.768c-.69.69-1.655 1.037-2.718.975-1.103-.064-2.167-.555-2.994-1.383L17.326 25.4l8.073-8.073 3.336 3.336c.828.828 1.319 1.891 1.383 2.995.061 1.062-.285 2.028-.975 2.718zM7.926 16L16 7.927 24.073 16 16 24.073zm3.412 12.735c-.828.828-1.891 1.319-2.995 1.383-1.063.062-2.028-.285-2.718-.975l-2.768-2.768c-.69-.69-1.036-1.656-.975-2.718.064-1.104.555-2.167 1.383-2.995L6.6 17.326l8.073 8.073zM3.265 11.338c-.828-.828-1.319-1.891-1.383-2.994-.061-1.063.285-2.028.975-2.719l2.768-2.768c.663-.663 1.552-.988 2.483-.988 1.123 0 2.307.473 3.23 1.396L14.674 6.6l-8.073 8.073zm17.397-8.073c.922-.923 2.107-1.396 3.23-1.396.93 0 1.82.325 2.483.988l2.768 2.768c.69.69 1.036 1.656.975 2.718-.064 1.104-.555 2.167-1.383 2.995L25.4 14.674l-8.073-8.073zm9.399 16.07L26.725 16l3.336-3.336c1.153-1.153 1.838-2.65 1.929-4.212.093-1.604-.448-3.079-1.521-4.152L27.7 1.53C26.627.458 25.152-.082 23.548.011c-1.563.09-3.059.775-4.212 1.928L16 5.275l-3.336-3.336C11.511.786 10.014.101 8.452.01 6.847-.083 5.373.458 4.3 1.531L1.53 4.3C.457 5.373-.083 6.848.011 8.452c.09 1.563.775 3.059 1.928 4.212L5.275 16l-3.336 3.336C.786 20.49.1 21.986.01 23.548c-.093 1.604.447 3.079 1.521 4.152L4.3 30.47C5.294 31.463 6.632 32 8.099 32c.117 0 .234-.003.353-.01 1.563-.09 3.059-.776 4.212-1.929L16 26.725l3.336 3.336c1.153 1.153 2.65 1.838 4.212 1.929.119.007.236.01.353.01 1.467 0 2.805-.537 3.8-1.531l2.768-2.769c1.073-1.073 1.613-2.548 1.52-4.152-.09-1.563-.775-3.059-1.928-4.212z"/></g><g><path fill="#097ade" d="M15.441 16.767a.934.934 0 0 0 1.326 0 .938.938 0 0 0 0-1.326l-.208-.208a.938.938 0 0 0-1.326 1.326z"/></g><g><path fill="#097ade" d="M12.38 14.992a.938.938 0 0 0-1.326 1.326l.209.208a.934.934 0 0 0 1.325 0 .937.937 0 0 0 0-1.326z"/></g><g><path fill="#097ade" d="M15.2 12.589a.935.935 0 0 0 1.326 0 .937.937 0 0 0 0-1.326l-.208-.209a.938.938 0 0 0-1.326 1.326z"/></g><g><path fill="#097ade" d="M16.8 19.412a.937.937 0 1 0-1.326 1.325l.208.209a.935.935 0 0 0 1.326 0 .938.938 0 0 0 0-1.326z"/></g><g><path fill="#097ade" d="M20.946 15.682l-.209-.208a.938.938 0 0 0-1.325 1.326l.208.208a.934.934 0 0 0 1.326 0 .937.937 0 0 0 0-1.326z"/></g></g></g></svg>