<svg xmlns="http://www.w3.org/2000/svg" width="26" height="32" viewBox="0 0 26 32"><g><g clip-path="url(#clip-42f3a4b6-70c4-4235-80a7-3adaec4f6043)"><g><g><path fill="#90aee8" d="M23.945 30.247H5.33a3.287 3.287 0 0 1-3.282-3.283V8.86a5.027 5.027 0 0 0 3.282 1.219h18.614zm.876-21.929H5.331A3.287 3.287 0 0 1 2.05 5.036 3.287 3.287 0 0 1 5.33 1.753h19.497a.876.876 0 1 0 0-1.753H5.33A5.044 5.044 0 0 0 .296 5.036v21.928A5.044 5.044 0 0 0 5.33 32h19.497a.876.876 0 0 0 .876-.877V9.195a.886.886 0 0 0-.883-.877z"/></g><g><path fill="#90aee8" d="M5.608 4.238a.876.876 0 1 0 0 1.753h16.465a.876.876 0 1 0 0-1.753z"/></g><g><path fill="#90aee8" d="M14.073 24.333a1.199 1.199 0 0 0-.831-.259h-4.57l4.267-4.763.4-.443.26-.314c.07-.1.129-.209.172-.324.049-.123.074-.255.076-.388a.81.81 0 0 0-.4-.778 2.41 2.41 0 0 0-1.134-.216H6.955a1.166 1.166 0 0 0-.788.237.8.8 0 0 0-.281.638c0 .367.122.59.367.67.351.1.716.143 1.08.13h3.457c-.144.2-.331.438-.562.712l-.897 1.015-1.166 1.297L6.77 23.09c-.482.54-.799.9-.95 1.08-.343.417-.3 1.029.097 1.394.285.214.638.318.994.291h6.297c.305.039.613-.038.864-.216a.821.821 0 0 0 .281-.637.864.864 0 0 0-.28-.67z"/></g><g><path fill="#90aee8" d="M21.502 18.887a.876.876 0 0 0-.607-.189h-3.339l3.118-3.48.292-.324.19-.229a1.05 1.05 0 0 0 .125-.237.791.791 0 0 0 .056-.284.592.592 0 0 0-.292-.568 1.761 1.761 0 0 0-.83-.158h-3.914a.852.852 0 0 0-.576.174.584.584 0 0 0-.205.466c0 .268.09.43.269.489.256.073.522.105.789.095h2.525c-.105.147-.242.32-.41.52l-.655.742-.853.947-1.018 1.129c-.352.394-.584.658-.694.79a.742.742 0 0 0 .07 1.017c.209.157.467.233.727.213h4.601a.9.9 0 0 0 .631-.158.6.6 0 0 0 .205-.465.631.631 0 0 0-.205-.49z"/></g></g></g></g></svg>