<svg xmlns="http://www.w3.org/2000/svg" width="32" height="32" viewBox="0 0 32 32"><g><g clip-path="url(#clip-cf0e0e16-a409-4ec9-9d21-ad1f3c9fb0f9)"><g><g><g><path fill="#90aee8" d="M29.307 13.413c-.714 0-1.293.578-1.293 1.292v1.302a12.63 12.63 0 0 1-3.729 8.989 12.631 12.631 0 0 1-8.985 3.718h-.008c-7.01-.004-12.71-5.71-12.707-12.721a12.631 12.631 0 0 1 3.73-8.989A12.631 12.631 0 0 1 15.3 3.286h.007c1.792 0 3.53.371 5.168 1.1a1.293 1.293 0 1 0 1.052-2.361A15.203 15.203 0 0 0 15.308.7H15.3A15.2 15.2 0 0 0 4.487 5.175 15.2 15.2 0 0 0 0 15.991a15.2 15.2 0 0 0 4.475 10.821A15.2 15.2 0 0 0 15.29 31.3h.009a15.2 15.2 0 0 0 10.812-4.475 15.2 15.2 0 0 0 4.487-10.817v-1.303c0-.714-.578-1.292-1.292-1.292z"/></g></g></g><g><g><g><path fill="#90aee8" d="M31.621 2.488a1.293 1.293 0 0 0-1.828 0L15.3 16.98l-3.288-3.288a1.293 1.293 0 1 0-1.828 1.828l4.202 4.202a1.288 1.288 0 0 0 1.828 0L31.62 4.316a1.293 1.293 0 0 0 0-1.828z"/></g></g></g></g></g></svg>