<svg xmlns="http://www.w3.org/2000/svg" width="48" height="48" viewBox="0 0 48 48"><defs><clipPath id="v99qa"><path fill="#fff" d="M0 24C0 10.745 10.745 0 24 0s24 10.745 24 24-10.745 24-24 24S0 37.255 0 24z"/></clipPath><clipPath id="v99qb"><path fill="#fff" d="M0 24C0 10.745 10.745 0 24 0s24 10.745 24 24-10.745 24-24 24S0 37.255 0 24z"/></clipPath></defs><g><g><path fill="#fff" d="M0 24C0 10.745 10.745 0 24 0s24 10.745 24 24-10.745 24-24 24S0 37.255 0 24z"/><path fill="none" stroke="#20c997" stroke-miterlimit="20" stroke-width="12" d="M0 24C0 10.745 10.745 0 24 0s24 10.745 24 24-10.745 24-24 24S0 37.255 0 24z" clip-path="url(&quot;#v99qa&quot;)"/></g><g><path fill="none" stroke="#ffba00" stroke-dasharray="38 150" stroke-linecap="round" stroke-miterlimit="20" stroke-width="12" d="M0 24C0 10.745 10.745 0 24 0s24 10.745 24 24-10.745 24-24 24S0 37.255 0 24z" clip-path="url(&quot;#v99qb&quot;)"/></g></g></svg>