<svg xmlns="http://www.w3.org/2000/svg" width="32" height="32" viewBox="0 0 32 32"><g><g clip-path="url(#clip-8982750f-e3cd-43a3-a1f3-46e3adead4d0)"><g><path fill="#097ade" d="M1.875 30.125V12h28.25v18.125zM6.25 5.563v1.75a.938.938 0 0 0 1.875 0v-1.75h5.625v1.75a.938.938 0 0 0 1.875 0v-1.75h5.625v1.75a.938.938 0 0 0 1.875 0v-1.75h7v4.562H1.875V5.563zM8.125 2.75c0-.483.393-.876.875-.876h.125c.482 0 .875.393.875.876v.937H8.125zm7.5 0c0-.483.393-.876.875-.876h.125c.482 0 .875.393.875.875v.938h-1.875zm7.5 0c0-.483.392-.876.875-.876h.125c.482 0 .875.393.875.875v.938h-1.875zm3.75.937V2.75A2.753 2.753 0 0 0 24.125 0H24a2.753 2.753 0 0 0-2.75 2.75v.938h-1.875V2.75A2.753 2.753 0 0 0 16.625 0H16.5a2.753 2.753 0 0 0-2.75 2.75v.938h-1.875V2.75A2.753 2.753 0 0 0 9.125 0H9a2.753 2.753 0 0 0-2.75 2.75v.937H.937A.938.938 0 0 0 0 4.625v26.437c0 .518.42.938.937.938h30.125c.518 0 .938-.42.938-.938V4.625a.938.938 0 0 0-.938-.937z"/></g><g><path fill="#097ade" d="M15.997 26.375a5.319 5.319 0 0 1-5.312-5.312 5.319 5.319 0 0 1 5.312-5.313 5.319 5.319 0 0 1 5.313 5.313 5.319 5.319 0 0 1-5.313 5.312zm0-12.5c-3.963 0-7.187 3.224-7.187 7.188 0 3.963 3.224 7.187 7.187 7.187 3.964 0 7.188-3.224 7.188-7.187s-3.224-7.188-7.188-7.188z"/></g><g><path fill="#097ade" d="M16.935 20.674v-2.486a.937.937 0 1 0-1.875 0v2.875c0 .248.099.487.274.663L17.21 23.6a.935.935 0 0 0 1.325 0 .937.937 0 0 0 0-1.326z"/></g></g></g></svg>