<svg xmlns="http://www.w3.org/2000/svg" width="40" height="40" viewBox="0 0 40 40"><g><g clip-path="url(#clip-9eeed34d-8b22-4142-a4d6-fad627816a21)"><g><g><path fill="#90aee8" d="M30.624 37.57V21.334c3.97.57 7.03 3.993 7.03 8.118s-3.06 7.548-7.03 8.118zm-7.83-16.29l-7.837-7.837 8.695-8.695a8.198 8.198 0 0 1 11.6 0 8.198 8.198 0 0 1 0 11.6l-2.95 2.95a10.52 10.52 0 0 0-2.85-.392c-2.523 0-4.84.891-6.658 2.374zm5.486 16.29c-3.97-.57-7.03-3.993-7.03-8.118s3.06-7.548 7.03-8.118zm-9.374-8.118c0 .987.137 1.943.392 2.85l-2.95 2.95a8.198 8.198 0 0 1-11.6 0 8.198 8.198 0 0 1 0-11.6L13.3 15.1l7.853 7.853a10.493 10.493 0 0 0-2.247 6.499zm15.734-9.178l2.269-2.27a10.54 10.54 0 0 0 0-14.913 10.54 10.54 0 0 0-14.914 0L3.091 21.995a10.54 10.54 0 0 0 0 14.914 10.54 10.54 0 0 0 14.914 0l2.269-2.269c1.813 3.196 5.248 5.358 9.178 5.358 5.815 0 10.546-4.731 10.546-10.546 0-3.93-2.162-7.365-5.358-9.178z"/></g></g></g></g></svg>