<svg xmlns="http://www.w3.org/2000/svg" width="32" height="32" viewBox="0 0 32 32"><g><g clip-path="url(#clip-c24fab70-fa40-4a0d-bc83-79cf00e5afc5)"><g><g><g><path fill="#90aee8" d="M16.602 7.256c-.197.166-.397.335-.602.51-.248-.21-.487-.41-.723-.608-2.006-1.682-3.053-2.61-3.053-3.695 0-.89.637-1.587 1.45-1.587 1.007 0 1.396 1.24 1.423 1.33a.934.934 0 0 0 1.806 0c.027-.09.416-1.33 1.423-1.33.813 0 1.45.697 1.45 1.587 0 1.09-1.2 2.128-3.174 3.793zM18.326 0C17.42 0 16.624.369 16 1.07c-.623-.702-1.42-1.07-2.326-1.07-1.864 0-3.325 1.52-3.325 3.462 0 2.01 1.562 3.32 3.724 5.132.42.351.852.715 1.313 1.114a.935.935 0 0 0 1.228 0c.42-.364.815-.698 1.198-1.02 2.195-1.854 3.84-3.236 3.84-5.226C21.651 1.52 20.19 0 18.325 0z"/></g></g></g><g><g><g><path fill="#90aee8" d="M29.954 8.833a2.811 2.811 0 0 1-3.605 1.68 2.811 2.811 0 0 1-1.68-3.604 2.81 2.81 0 0 1 3.604-1.68 2.81 2.81 0 0 1 1.68 3.604zm-.977 11.542l-4.666 9.75h-5.235l1.07-4.283L25.25 22a2.81 2.81 0 0 0 .563-3.938 2.816 2.816 0 0 0-3.932-.566l-2.186 1.614a3.758 3.758 0 0 0-1.767-2.575l.05-.213c.857-3.344 4.48-5.23 7.73-4.046 3.245 1.18 4.774 4.974 3.27 8.099zm-10.57 4.69l-1.264 5.06h-2.286l-1.265-5.06a.937.937 0 0 0-.345-.521l-5.372-4.045A.936.936 0 1 1 9 19l.006.005 3.928 2.9c.68.964 1.8 1.596 3.066 1.596a3.747 3.747 0 0 0 3.066-1.595L22.999 19a.936.936 0 1 1 1.125 1.5l-5.37 4.043a.938.938 0 0 0-.346.521zM7.69 30.125l-4.667-9.752c-1.505-3.126.03-6.918 3.27-8.097 3.256-1.185 6.875.707 7.73 4.046l.051.213a3.759 3.759 0 0 0-1.767 2.575l-2.183-1.612a2.811 2.811 0 1 0-3.374 4.5l5.105 3.844 1.07 4.282zM2.046 8.832a2.81 2.81 0 0 1 1.681-3.605A2.81 2.81 0 0 1 7.332 6.91a2.81 2.81 0 0 1-1.681 3.605 2.81 2.81 0 0 1-3.605-1.681zM16 17.875c1.034 0 1.875.841 1.875 1.875A1.877 1.877 0 0 1 16 21.625a1.877 1.877 0 0 1-1.875-1.875c0-1.034.841-1.875 1.875-1.875zm15.716-8.4a4.685 4.685 0 0 0-2.802-6.009 4.693 4.693 0 0 0-6.008 2.802 4.66 4.66 0 0 0 .264 3.798c-3.51.24-6.29 2.777-7.014 5.814l-.03.123c-.128-.004-.123-.004-.252 0-.8-3.355-3.691-5.708-7.044-5.937a4.66 4.66 0 0 0 .264-3.798 4.693 4.693 0 0 0-6.008-2.802 4.685 4.685 0 0 0-.148 8.75 7.809 7.809 0 0 0-1.606 8.968l4.921 10.283a.937.937 0 0 0 .846.532H24.9c.361 0 .69-.207.846-.532l4.92-10.281a7.81 7.81 0 0 0-1.605-8.97 4.676 4.676 0 0 0 2.654-2.742z"/></g></g></g></g></g></svg>