<?xml version="1.0" encoding="utf-8"?>
<!-- Generator: Adobe Illustrator 16.0.0, SVG Export Plug-In . SVG Version: 6.00 Build 0)  -->
<!DOCTYPE svg PUBLIC "-//W3C//DTD SVG 1.1//EN" "http://www.w3.org/Graphics/SVG/1.1/DTD/svg11.dtd">
<svg version="1.1" id="图层_1" xmlns="http://www.w3.org/2000/svg" xmlns:xlink="http://www.w3.org/1999/xlink" x="0px" y="0px"
	 width="40px" height="35px" viewBox="0 0 40 35" enable-background="new 0 0 40 35" xml:space="preserve">
<g>
	<g>
		<g>
			<path fill="#FFFFFF" d="M29.453,21h4.688c0.647,0,1.173-0.524,1.173-1.172c0.001-0.646-0.524-1.172-1.171-1.172
				c-0.001,0-0.002,0-0.002,0h-4.688c-0.647,0-1.172,0.523-1.173,1.172C28.28,20.475,28.805,21,29.453,21L29.453,21z"/>
		</g>
		<g>
			<path fill="#FFFFFF" d="M29.453,25.688h4.688c0.647,0.001,1.173-0.523,1.173-1.171c0.001-0.647-0.524-1.173-1.171-1.173
				c-0.001,0-0.002,0-0.002,0h-4.688c-0.647,0-1.172,0.524-1.173,1.172C28.28,25.162,28.805,25.688,29.453,25.688L29.453,25.688z"/>
		</g>
		<g>
			<path fill="#FFFFFF" d="M29.453,30.375h4.688c0.647,0,1.173-0.524,1.173-1.172c0.001-0.646-0.524-1.172-1.171-1.172
				c-0.001,0-0.002,0-0.002,0h-4.688c-0.647,0-1.172,0.523-1.173,1.172C28.28,29.85,28.805,30.375,29.453,30.375L29.453,30.375z"/>
		</g>
		<g>
			<path fill="#FFFFFF" d="M37.656,6.938H18.283l-1.562-2.344h20.935V6.938z M37.656,32.718H2.344V2.25h9.998l4.34,6.51
				c0.217,0.325,0.582,0.521,0.974,0.521h20V32.718z M38.828,2.25h-23.67l-1.214-1.822c-0.217-0.326-0.583-0.521-0.975-0.521H1.172
				C0.525-0.094,0,0.431,0,1.078v32.813c0,0.647,0.525,1.172,1.172,1.172h37.656c0.646,0,1.172-0.524,1.172-1.172V3.42
				C40,2.774,39.475,2.249,38.828,2.25L38.828,2.25z"/>
		</g>
		<g>
			<path fill="#FFFFFF" d="M21.54,20.525c-0.603-0.152-1.214,0.213-1.367,0.814l0,0.001c-0.471,1.865-2.33,3.218-4.419,3.218
				s-3.947-1.353-4.419-3.218c-0.152-0.603-0.765-0.968-1.367-0.815S9,21.291,9.153,21.893c0.35,1.388,1.2,2.642,2.39,3.532
				c0.909,0.675,1.968,1.119,3.086,1.295v1.25h-1.516c-0.622,0-1.126,0.505-1.126,1.126c0,0.622,0.504,1.127,1.126,1.127h5.283
				c0.622,0,1.125-0.504,1.125-1.126s-0.504-1.126-1.125-1.126l0,0H16.88V26.72c1.118-0.176,2.177-0.62,3.086-1.295
				c1.19-0.89,2.039-2.145,2.39-3.532C22.508,21.291,22.144,20.679,21.54,20.525C21.541,20.526,21.541,20.526,21.54,20.525z"/>
		</g>
		<g>
			<path fill="#FFFFFF" d="M14.468,14.355c0-0.709,0.577-1.286,1.286-1.286c0.71,0,1.287,0.577,1.287,1.286v5.325
				c0,0.711-0.577,1.287-1.287,1.287s-1.286-0.576-1.286-1.287V14.355z M15.754,23.218c1.953-0.002,3.536-1.585,3.538-3.538v-5.325
				c-0.003-1.953-1.585-3.535-3.538-3.537c-1.952,0.003-3.534,1.585-3.537,3.537v5.325C12.219,21.633,13.801,23.215,15.754,23.218z"
				/>
		</g>
	</g>
</g>
</svg>
