<svg xmlns="http://www.w3.org/2000/svg" width="40" height="35" viewBox="0 0 40 35"><g><g><g><path fill="#90aee8" d="M29.453 21h4.688a1.172 1.172 0 1 0 0-2.344h-4.688a1.172 1.172 0 1 0 0 2.344z"/></g><g><path fill="#90aee8" d="M29.453 25.688h4.688a1.172 1.172 0 1 0 0-2.344h-4.688a1.172 1.172 0 1 0 0 2.344z"/></g><g><path fill="#90aee8" d="M29.453 30.375h4.688a1.172 1.172 0 1 0 0-2.344h-4.688a1.172 1.172 0 1 0 0 2.344z"/></g><g><path fill="#90aee8" d="M37.656 6.938H18.283l-1.562-2.344h20.935zm0 25.78H2.344V2.25h9.998l4.34 6.51c.217.325.582.521.974.521h20zM38.828 2.25h-23.67L13.944.428a1.172 1.172 0 0 0-.975-.522H1.172C.525-.094 0 .431 0 1.078v32.813c0 .647.525 1.172 1.172 1.172h37.656c.647 0 1.172-.525 1.172-1.172V3.42c0-.646-.525-1.171-1.172-1.171z"/></g><g><path fill="#90aee8" d="M21.54 20.526a1.125 1.125 0 0 0-1.367.815c-.471 1.865-2.33 3.218-4.419 3.218-2.089 0-3.947-1.353-4.419-3.218a1.125 1.125 0 1 0-2.182.552c.35 1.387 1.2 2.641 2.39 3.532a7.011 7.011 0 0 0 3.086 1.295v1.25h-1.516a1.126 1.126 0 0 0 0 2.252h5.283a1.125 1.125 0 1 0 0-2.251H16.88V26.72a7.011 7.011 0 0 0 3.086-1.295c1.19-.89 2.039-2.145 2.39-3.532a1.125 1.125 0 0 0-.816-1.367z"/></g><g><path fill="#90aee8" d="M14.468 14.355c0-.709.577-1.286 1.286-1.286.71 0 1.287.577 1.287 1.286v5.325c0 .71-.577 1.287-1.287 1.287s-1.286-.577-1.286-1.287zm1.286 8.863a3.542 3.542 0 0 0 3.538-3.538v-5.325a3.542 3.542 0 0 0-3.538-3.537 3.542 3.542 0 0 0-3.537 3.537v5.325a3.542 3.542 0 0 0 3.537 3.538z"/></g></g></g></svg>