<svg xmlns="http://www.w3.org/2000/svg" width="36" height="40" viewBox="0 0 36 40"><g><g clip-path="url(#clip-dfb32b9a-5d1c-4c9a-96a6-ab9a5e5bc947)"><path fill="#90aee8" d="M23.109 10.243h3.357l-4.92-4.94V8.68c0 .862.7 1.563 1.563 1.563zm-7.545 26.632c-.27.997-.416 2.044-.416 3.125H4.758A4.693 4.693 0 0 1 .07 35.312V4.689A4.693 4.693 0 0 1 4.758 0h15.918l11.105 11.16v9.783a8.806 8.806 0 0 0-3.117-1.198v-6.377H23.11A4.693 4.693 0 0 1 18.42 8.68V3.125H4.758c-.862 0-1.563.701-1.563 1.563v30.625c0 .861.701 1.562 1.563 1.562zm11.538-5.703a2.66 2.66 0 0 0 2.656-2.656 2.66 2.66 0 0 0-2.656-2.657 2.66 2.66 0 0 0-2.657 2.657 2.66 2.66 0 0 0 2.657 2.656zM32.805 40a5.71 5.71 0 0 0-5.703-5.703A5.71 5.71 0 0 0 21.398 40h-3.125a8.834 8.834 0 0 1 4.48-7.68 5.756 5.756 0 0 1-1.433-3.804 5.788 5.788 0 0 1 5.782-5.782 5.788 5.788 0 0 1 5.78 5.782 5.756 5.756 0 0 1-1.432 3.803A8.834 8.834 0 0 1 35.93 40zM6.398 16.562H25.54v3.125H6.4zm0 6.172h11.094v3.125H6.398zm0 6.172h11.094v3.125H6.398z"/></g></g></svg>