<svg xmlns="http://www.w3.org/2000/svg" width="22" height="32" viewBox="0 0 22 32"><g><g clip-path="url(#clip-f2a6bbc0-edab-4866-bc30-b7ad3a2449e2)"><g><g><g><path fill="#90aee8" d="M11.065 25.84c-2.644-1.41-4.148-3.086-4.148-4.64 0-.898.54-1.853 1.54-1.853 1.118 0 1.55 1.317 1.58 1.42a1.06 1.06 0 0 0 1.022.78h.008c.477 0 .895-.324 1.026-.784.004-.014.418-1.416 1.58-1.416 1 0 1.54.955 1.54 1.853 0 1.554-1.504 3.23-4.148 4.64zm2.609-8.63c-1.014 0-1.907.4-2.609 1.165-.702-.765-1.595-1.166-2.609-1.166-2.062 0-3.677 1.753-3.677 3.991 0 1.462.754 4.29 5.81 6.801.3.149.652.15.952 0 5.056-2.511 5.81-5.34 5.81-6.801 0-2.238-1.615-3.99-3.677-3.99z"/></g></g></g><g><g><g><path fill="#90aee8" d="M2.652 29.913V17.74a3.134 3.134 0 0 1 3.13-3.13h10.435a3.134 3.134 0 0 1 3.13 3.13v12.174zm13.565-17.391H5.783a5.223 5.223 0 0 0-5.218 5.217v13.218c0 .576.467 1.043 1.044 1.043H20.39c.577 0 1.044-.467 1.044-1.043V17.739a5.223 5.223 0 0 0-5.218-5.217z"/></g></g></g><g><g><g><path fill="#90aee8" d="M11 10.435A4.179 4.179 0 0 1 6.826 6.26 4.179 4.179 0 0 1 11 2.087a4.179 4.179 0 0 1 4.174 4.174A4.179 4.179 0 0 1 11 10.435zM11 0a6.268 6.268 0 0 0-6.26 6.26A6.268 6.268 0 0 0 11 12.523a6.268 6.268 0 0 0 6.26-6.261A6.268 6.268 0 0 0 11 0z"/></g></g></g></g></g></svg>