<svg xmlns="http://www.w3.org/2000/svg" width="24" height="32" viewBox="0 0 24 32"><g><g clip-path="url(#clip-cbdea27d-d112-4641-a551-9ccfb03eee3f)"><g><path fill="#90aee8" d="M21.73 30.125H2.27V17.801a6.25 6.25 0 0 0 4.397 1.803 6.278 6.278 0 0 0 6.27-6.27 6.25 6.25 0 0 0-1.803-4.396h8.429v-2.23h2.166zM12 1.875a2 2 0 0 1 1.997 1.802l.085.844h3.606v2.542H6.312V4.52h3.606l.085-.844A1.999 1.999 0 0 1 12 1.875zM2.27 6.708h2.167v2.23h2.23a4.4 4.4 0 0 1 4.395 4.395 4.4 4.4 0 0 1-4.395 4.396 4.4 4.4 0 0 1-4.396-4.396zm17.293-1.875V2.647h-3.88A3.87 3.87 0 0 0 12 0a3.869 3.869 0 0 0-3.682 2.646h-3.88v2.188H.395V32h23.208V4.834z"/></g><g><path fill="#90aee8" d="M5.73 14.27v1.397h1.874V14.27H9v-1.875H7.604V11H5.73v1.396H4.333v1.875z"/></g><g><path fill="#90aee8" d="M16 12.396h3.333v1.875H16z"/></g><g><path fill="#90aee8" d="M4.333 21.73h6.334v1.874H4.333z"/></g><g><path fill="#90aee8" d="M4.333 25.73h9v1.874h-9z"/></g><g><path fill="#90aee8" d="M17.333 21.73h2v1.874h-2z"/></g><g><path fill="#90aee8" d="M17.333 25.73h2v1.874h-2z"/></g></g></g></svg>