<svg xmlns="http://www.w3.org/2000/svg" width="32" height="26" viewBox="0 0 32 26"><g><g><g><path fill="#097ade" d="M16.884 16.884a1.251 1.251 0 0 1-1.768-1.768c.392-.387 3.055-2.286 6.332-4.564-2.277 3.277-4.177 5.94-4.564 6.332zm10.312-12.08a1.25 1.25 0 0 0-1.587-.15c-1.87 1.275-11.252 7.686-12.26 8.694a3.754 3.754 0 0 0 0 5.304A3.739 3.739 0 0 0 16 19.748c.96 0 1.92-.365 2.652-1.096 1.008-1.009 7.419-10.39 8.694-12.26a1.25 1.25 0 0 0-.15-1.588z"/></g><g><path fill="#097ade" d="M5.764 21.814l-1.543.753a13.435 13.435 0 0 1-.843-11.36l1.769.848a1.25 1.25 0 0 0 1.081-2.254l-1.746-.837c2.17-3.539 5.924-6.006 10.268-6.407v1.88a1.25 1.25 0 1 0 2.5 0v-1.88c1.49.135 2.93.514 4.298 1.132a1.25 1.25 0 0 0 1.029-2.279A15.879 15.879 0 0 0 16 0 15.895 15.895 0 0 0 4.686 4.686 15.896 15.896 0 0 0 0 16c0 3.158.937 6.23 2.71 8.882a1.25 1.25 0 0 0 1.588.429l2.563-1.25a1.25 1.25 0 1 0-1.097-2.247z"/></g><g><path fill="#097ade" d="M30.59 9.423a1.25 1.25 0 1 0-2.279 1.029A13.393 13.393 0 0 1 29.5 16c0 2.306-.594 4.559-1.727 6.576l-1.61-.767a1.25 1.25 0 0 0-1.075 2.257l2.625 1.25a1.247 1.247 0 0 0 1.576-.434A15.937 15.937 0 0 0 32 16c0-2.291-.475-4.504-1.41-6.577z"/></g></g></g></svg>