<svg xmlns="http://www.w3.org/2000/svg" width="48" height="48" viewBox="0 0 48 48"><g><g><path fill="#90aee8" d="M24.563 23.25a6.851 6.851 0 0 0-6.844-6.844 6.851 6.851 0 0 0-6.844 6.844 6.851 6.851 0 0 0 6.844 6.844 6.851 6.851 0 0 0 6.843-6.844zM23.25 10.57c0 3.76 3.06 6.82 6.82 6.82 3.76 0 6.82-3.06 6.82-6.82 0-3.76-3.06-6.82-6.82-6.82-3.76 0-6.82 3.06-6.82 6.82zm4.81 10.377a10.574 10.574 0 0 1-3.507 10.39l.197.079v4.143A14.066 14.066 0 0 0 18 33.844v-.004c-.031 0-.063 0-.094.002v.002C10.1 33.844 3.75 40.194 3.75 48H0c0-7.441 4.563-13.836 11.037-16.536a10.577 10.577 0 0 1-3.912-8.214c0-5.841 4.752-10.594 10.594-10.594a10.6 10.6 0 0 1 2.03.196 10.56 10.56 0 0 1-.249-2.282C19.5 4.742 24.242 0 30.07 0s10.57 4.742 10.57 10.57c0 3.271-1.494 6.2-3.835 8.14a17.674 17.674 0 0 1 7.716 5.946h-5.049a14.097 14.097 0 0 0-8.65-3.543 10.568 10.568 0 0 1-2.762-.166zM48 40.125h-7.875V48h-3.75v-7.875H28.5v-3.75h7.875V28.5h3.75v7.875H48z"/></g></g></svg>