<svg xmlns="http://www.w3.org/2000/svg" width="36" height="48" viewBox="0 0 36 48"><g><g><path fill="#90aee8" d="M29.538 27.432a3.133 3.133 0 0 1-3.13-3.129 3.133 3.133 0 0 1 3.13-3.129 3.133 3.133 0 0 1 3.13 3.13 3.133 3.133 0 0 1-3.13 3.128zm6.298-3.129a6.305 6.305 0 0 0-6.298-6.297 6.305 6.305 0 0 0-6.298 6.297 6.31 6.31 0 0 0 4.713 6.096v7.09c0 4.049-3.293 7.342-7.342 7.342-4.048 0-7.341-3.293-7.341-7.342V23.261c5.696-.776 10.1-5.67 10.1-11.575V1.584C23.37.71 22.66 0 21.786 0h-5.05a1.584 1.584 0 0 0 0 3.169h3.465v8.517c0 4.696-3.82 8.516-8.515 8.516-4.697 0-8.517-3.82-8.517-8.516V3.169h3.466a1.584 1.584 0 0 0 0-3.169h-5.05C.708 0 0 .71 0 1.584v10.102C0 17.59 4.405 22.485 10.101 23.26v14.228c0 5.796 4.715 10.511 10.51 10.511 5.796 0 10.511-4.715 10.511-10.511v-7.09a6.31 6.31 0 0 0 4.714-6.096z"/></g></g></svg>