<svg xmlns="http://www.w3.org/2000/svg" width="46" height="48" viewBox="0 0 46 48"><defs><clipPath id="4uela"><path fill="#fff" d="M22 36c0-6.627 5.373-12 12-12s12 5.373 12 12-5.373 12-12 12-12-5.373-12-12z"/></clipPath></defs><g><g><path fill="#90aee8" d="M36.875 37.5c0 .827-.793 1.5-1.767 1.5h-1.766V9.257A3.261 3.261 0 0 0 30.084 6H9.658V4.5c0-.827.793-1.5 1.767-1.5h23.683c.974 0 1.767.673 1.767 1.5zm-6.533 7.243a.258.258 0 0 1-.258.257H3.382a.258.258 0 0 1-.257-.257V9.257c0-.142.115-.257.257-.257h26.702c.142 0 .258.115.258.257zM35.108 0H11.425C8.797 0 6.658 2.019 6.658 4.5V6H3.382A3.261 3.261 0 0 0 .125 9.257v35.486A3.261 3.261 0 0 0 3.382 48h26.702a3.261 3.261 0 0 0 3.258-3.257V42h1.766c2.629 0 4.767-2.019 4.767-4.5v-33c0-2.481-2.138-4.5-4.767-4.5z"/></g><g><path fill="#90aee8" d="M24.125 20.25H9.875a1.5 1.5 0 0 1 0-3h14.25a1.5 1.5 0 0 1 0 3z"/></g><g><path fill="#90aee8" d="M24.125 26.25H9.875a1.5 1.5 0 0 1 0-3h14.25a1.5 1.5 0 0 1 0 3z"/></g><g><path fill="#90aee8" d="M18.125 32.25h-8.25a1.5 1.5 0 0 1 0-3h8.25a1.5 1.5 0 0 1 0 3z"/></g><g><path fill="#fff" d="M22 36c0-6.627 5.373-12 12-12s12 5.373 12 12-5.373 12-12 12-12-5.373-12-12z"/><path fill="none" stroke="#90aee8" stroke-miterlimit="20" stroke-width="6" d="M22 36c0-6.627 5.373-12 12-12s12 5.373 12 12-5.373 12-12 12-12-5.373-12-12z" clip-path="url(&quot;#4uela&quot;)"/></g><g><path fill="none" stroke="#90aee8" stroke-linecap="round" stroke-miterlimit="20" stroke-width="3" d="M31 33l6 6"/></g><g><path fill="none" stroke="#90aee8" stroke-linecap="round" stroke-miterlimit="20" stroke-width="3" d="M37 33l-6 6"/></g></g></svg>