<svg xmlns="http://www.w3.org/2000/svg" width="32" height="26" viewBox="0 0 32 26"><g><g clip-path="url(#clip-c1ae6dcd-4baa-4680-9b64-d2afd69da14c)"><g><path fill="#90aee8" d="M32 8.938c0 .91-.15 1.808-.438 2.67-1.36 6.15-13.113 13.59-13.613 13.907a.965.965 0 0 1-1.023 0c-.134-.087-3.446-2.177-6.803-5.05a.957.957 0 0 1-.107-1.344.962.962 0 0 1 1.345-.108c2.503 2.138 5.032 3.867 6.082 4.563 3.53-2.301 11.323-8.156 12.278-12.475.25-.763.363-1.456.363-2.16A6.732 6.732 0 0 0 26.6 3.044c-2.745-1.523-6.42-.82-8.427 1.6-.361.437-1.103.437-1.47 0-2.015-2.423-5.686-3.12-8.427-1.603a6.73 6.73 0 0 0-3.49 5.895c0 .7.118 1.396.338 2.069.142.63.413 1.245.758 1.884h5.567l1.912-4.394a.95.95 0 0 1 .957-.57c.41.035.752.33.843.73l1.408 5.951 1.82-2.985a.95.95 0 0 1 .815-.457h3.455a.953.953 0 1 1 0 1.908h-2.92l-2.743 4.505a.95.95 0 0 1-1.74-.273l-1.286-5.42-1.016 2.34a.95.95 0 0 1-.876.573H.954A.957.957 0 0 1 0 13.844c0-.526.432-.954.954-.954H3.75a8.286 8.286 0 0 1-.458-1.378 8.04 8.04 0 0 1-.41-2.576 8.635 8.635 0 0 1 4.475-7.565C10.56-.4 14.797.157 17.443 2.643 20.082.156 24.315-.4 27.523 1.37A8.642 8.642 0 0 1 32 8.938z"/></g></g></g></svg>