<?xml version="1.0" encoding="utf-8"?>
<!-- Generator: Adobe Illustrator 16.0.0, SVG Export Plug-In . SVG Version: 6.00 Build 0)  -->
<!DOCTYPE svg PUBLIC "-//W3C//DTD SVG 1.1//EN" "http://www.w3.org/Graphics/SVG/1.1/DTD/svg11.dtd">
<svg version="1.1" id="图层_1" xmlns="http://www.w3.org/2000/svg" xmlns:xlink="http://www.w3.org/1999/xlink" x="0px" y="0px"
	 width="35px" height="40px" viewBox="0 0 35 40" enable-background="new 0 0 35 40" xml:space="preserve">
<g>
	<g>
		<g>
			<g>
				<g>
					<path fill="#FFFFFF" d="M32.337,14.496c0,4.77-1.356,9.418-3.92,13.439c-2.559,4.018-6.213,7.219-10.532,9.226l-0.544,0.253
						l-0.544-0.253c-4.319-2.007-7.973-5.208-10.532-9.226c-2.563-4.014-3.922-8.677-3.92-13.439V7.831h1.768
						c4.837,0,9.498-1.667,13.228-4.714c3.733,3.05,8.407,4.715,13.228,4.713h1.769V14.496L32.337,14.496z M30.568,5.486
						c-4.566,0.002-8.973-1.68-12.377-4.725L17.341,0l-0.852,0.761c-3.403,3.045-7.81,4.728-12.377,4.725H0v9.01
						c-0.003,5.209,1.485,10.311,4.288,14.701c2.798,4.394,6.796,7.895,11.52,10.09L17.34,40l1.533-0.713
						c4.725-2.195,8.721-5.696,11.52-10.09c2.803-4.391,4.29-9.492,4.287-14.7v-9.01L30.568,5.486z"/>
				</g>
			</g>
		</g>
		<g>
			<g>
				<g>
					<path fill="#FFFFFF" d="M22.584,21.227h-4.02v4.02h-2.448v-4.02h-4.018v-2.449h4.018v-4.019h2.448v4.019h4.02V21.227z
						 M20.91,12.414h-7.138v4.02H9.753v7.136h4.019v4.02h7.138v-4.02h4.018v-7.138H20.91V12.414z"/>
				</g>
			</g>
		</g>
	</g>
</g>
</svg>
