<svg xmlns="http://www.w3.org/2000/svg" width="35" height="40" viewBox="0 0 35 40"><g><g><g><g><g><path fill="#90aee8" d="M32.337 14.496c0 4.77-1.356 9.418-3.92 13.44a24.956 24.956 0 0 1-10.532 9.225l-.544.253-.544-.253a24.956 24.956 0 0 1-10.532-9.225 24.956 24.956 0 0 1-3.92-13.44V7.831h1.768c4.837 0 9.498-1.667 13.228-4.714A20.888 20.888 0 0 0 30.569 7.83h1.768v6.665zm-1.768-9.01A18.55 18.55 0 0 1 18.192.761L17.341 0l-.852.761A18.549 18.549 0 0 1 4.112 5.486H0v9.01a27.296 27.296 0 0 0 4.288 14.701 27.297 27.297 0 0 0 11.52 10.09L17.34 40l1.533-.713a27.297 27.297 0 0 0 11.52-10.09 27.296 27.296 0 0 0 4.287-14.7v-9.01z"/></g></g></g><g><g><g><path fill="#90aee8" d="M22.584 21.226h-4.019v4.02h-2.449v-4.02h-4.018v-2.448h4.018v-4.019h2.449v4.019h4.019zm-1.674-8.812h-7.138v4.02H9.753v7.137h4.019v4.019h7.138V23.57h4.018v-7.138H20.91z"/></g></g></g></g></g></svg>