<svg xmlns="http://www.w3.org/2000/svg" width="39" height="40" viewBox="0 0 39 40"><defs><clipPath id="px24a"><path fill="#fff" d="M6 17c-3 0-6-3-6-6V7c0-3 3-6 6-6h4c3 0 6 3 6 6v10z"/></clipPath></defs><g><g clip-path="url(#clip-90ca7d72-9e19-43b6-bcdd-2ac65a6712f9)"><g><path fill="#90aee8" d="M26.61 10.122c-2.79 0-5.06-2.27-5.06-5.06C21.55 2.272 23.82 0 26.61 0a5.03 5.03 0 0 1 4.555 2.851 1.28 1.28 0 1 1-2.303 1.119 2.488 2.488 0 0 0-2.253-1.41 2.504 2.504 0 0 0-2.5 2.501 2.5 2.5 0 1 0 4.806.97 1.28 1.28 0 1 1 2.357.998 5.053 5.053 0 0 1-4.662 3.093z"/></g><g><path fill="none" stroke="#90aee8" stroke-miterlimit="50" stroke-width="4" d="M6 17c-3 0-6-3-6-6V7c0-3 3-6 6-6h4c3 0 6 3 6 6v10z" clip-path="url(&quot;#px24a&quot;)"/></g><g><path fill="#90aee8" d="M29.904 40l-.106-.002a3.151 3.151 0 0 1-3-2.73l-.188-1.396-.188 1.397a3.147 3.147 0 0 1-3.527 2.705 3.136 3.136 0 0 1-2.1-1.215 3.127 3.127 0 0 1-.615-2.33l1.93-14.373V16.98a2.001 2.001 0 0 0-.136.249 4.332 4.332 0 0 0-.276.83l-1.262 5.252a3.148 3.148 0 0 1-3.798 2.327 3.124 3.124 0 0 1-1.95-1.412 3.136 3.136 0 0 1-.379-2.387l1.262-5.255c.988-4.112 3.876-6.469 7.923-6.469a1.28 1.28 0 1 1 0 2.56c-2.846 0-4.725 1.559-5.434 4.507l-1.262 5.255a.588.588 0 0 0 .433.711c.375.086.642-.13.717-.436l1.261-5.252c.124-.515.272-.948.452-1.328.57-1.208 1.513-1.943 2.798-2.182.077-.015.157-.022.235-.022h.697c.707 0 1.28.573 1.28 1.28v6.933c0 .057-.004.114-.012.17l-1.942 14.461a.585.585 0 0 0 .504.662.591.591 0 0 0 .663-.505l1.457-10.833a1.28 1.28 0 0 1 2.538 0l1.456 10.833a.595.595 0 0 0 .678.504.579.579 0 0 0 .376-.226.584.584 0 0 0 .115-.434l-1.942-14.462a1.284 1.284 0 0 1-.011-.17v-6.933c0-.708.572-1.28 1.28-1.28h.696c.078 0 .158.007.235.021 1.286.24 2.227.974 2.8 2.184.179.378.326.811.45 1.324l1.262 5.257a.598.598 0 0 0 .572.452.583.583 0 0 0 .505-.28.59.59 0 0 0 .072-.45l-1.262-5.255c-.708-2.948-2.588-4.507-5.435-4.507a1.28 1.28 0 1 1 0-2.56c4.048 0 6.936 2.358 7.924 6.468l1.262 5.257c.196.82.062 1.668-.379 2.386a3.123 3.123 0 0 1-1.95 1.412 3.144 3.144 0 0 1-3.797-2.325l-1.263-5.257a4.337 4.337 0 0 0-.276-.826 1.986 1.986 0 0 0-.137-.25v5.074l1.932 14.376a3.125 3.125 0 0 1-.617 2.327A3.131 3.131 0 0 1 29.905 40z"/></g><g><path fill="#90aee8" d="M10.674 10.025H4.818a1.28 1.28 0 1 1 0-2.56h5.856a1.28 1.28 0 1 1 0 2.56z"/></g><g><path fill="#90aee8" d="M7.744 12.954a1.28 1.28 0 0 1-1.28-1.28V5.82a1.28 1.28 0 1 1 2.56 0v5.855a1.28 1.28 0 0 1-1.28 1.28z"/></g><g><path fill="#90aee8" d="M12.76 28.71H2.147a1.28 1.28 0 1 1 0-2.56h10.611a1.28 1.28 0 1 1 0 2.56z"/></g><g><path fill="#90aee8" d="M12.76 32.811H2.147a1.28 1.28 0 1 1 0-2.56h10.611a1.28 1.28 0 1 1 0 2.56z"/></g><g><path fill="#90aee8" d="M8.784 36.914H2.148a1.28 1.28 0 1 1 0-2.56h6.636a1.28 1.28 0 1 1 0 2.56z"/></g></g></g></svg>