<svg xmlns="http://www.w3.org/2000/svg" width="26" height="32" viewBox="0 0 26 32"><g><g clip-path="url(#clip-34e6d061-ed08-4244-bfe0-b59996138c53)"><g><path fill="#90aee8" d="M24.2 30.4H1.8V1.6h22.4zM25 0H1a.8.8 0 0 0-.8.8v30.4a.8.8 0 0 0 .8.8h24a.8.8 0 0 0 .8-.8V.8A.8.8 0 0 0 25 0z"/></g><g><path fill="#90aee8" d="M5 21.6a.8.8 0 0 0 .8.8h14.4a.8.8 0 0 0 0-1.6H5.8a.8.8 0 0 0-.8.8z"/></g><g><path fill="#90aee8" d="M20.2 25.6H5.8a.8.8 0 0 0 0 1.6h14.4a.8.8 0 0 0 0-1.6z"/></g><g><path fill="#90aee8" d="M15.4 9.143a.802.802 0 0 0-.716.442l-.633 1.266-1.075-4.302a.8.8 0 0 0-1.491-.164l-1.38 2.758H7.4a.8.8 0 0 0 0 1.6h3.2c.303 0 .58-.172.716-.442l.633-1.266 1.075 4.302a.798.798 0 0 0 1.492.164l1.379-2.758H18.6a.8.8 0 1 0 0-1.6z"/></g></g></g></svg>