<svg xmlns="http://www.w3.org/2000/svg" width="35" height="40" viewBox="0 0 35 40"><g><g><g><g><g><path fill="#90aee8" d="M26.563 7.031H8.744c.4-.69.631-1.49.631-2.343 0-.854-.23-1.654-.63-2.344h17.818a2.346 2.346 0 0 1 2.343 2.344 2.346 2.346 0 0 1-2.343 2.343zm-21.875 0v21.25H2.344V4.688a2.346 2.346 0 0 1 2.344-2.344A2.346 2.346 0 0 1 7.03 4.688 2.346 2.346 0 0 1 4.688 7.03zm0-7.031A4.693 4.693 0 0 0 0 4.688v25.937h4.688V40h23.046V29.491l-2.343 1.173v6.992H7.03V9.375h18.36v11.68l2.343-1.172V9.227a4.696 4.696 0 0 0 3.516-4.54A4.693 4.693 0 0 0 26.563 0z"/></g></g></g><g><g><g><path fill="#90aee8" d="M33.233 19.753L13.77 29.487l-2.62 3.495h4.368l19.462-9.735z"/></g></g></g><g><g><g><path fill="#90aee8" d="M9.375 18.75v-2.344h13.672v2.344z"/></g></g></g><g><g><g><path fill="#90aee8" d="M9.375 14.063v-2.344h13.672v2.344z"/></g></g></g><g><g><g><path fill="#90aee8" d="M9.375 23.438v-2.344h8.985v2.343z"/></g></g></g></g></g></svg>