<svg xmlns="http://www.w3.org/2000/svg" width="29" height="32" viewBox="0 0 29 32"><g><g clip-path="url(#clip-ceabfbf7-ef5c-4979-9b0e-48d672c562b9)"><g><path fill="#90aee8" d="M14.5 14.188A2.816 2.816 0 0 0 11.687 17h1.876a.939.939 0 0 1 1.874 0 .926.926 0 0 1-.21.593c-.196.238-.327.29-.526.369-.683.27-1.139.69-1.139 1.85v.938h1.875l.003-1.064a2.855 2.855 0 0 0 1.238-.906 2.816 2.816 0 0 0-2.178-4.592z"/></g><g><path fill="#90aee8" d="M13.563 21.688h1.874v1.875h-1.874z"/></g><g><path fill="#90aee8" d="M14.5 25.438a6.57 6.57 0 0 1-6.563-6.563 6.57 6.57 0 0 1 6.563-6.562 6.57 6.57 0 0 1 6.563 6.562 6.57 6.57 0 0 1-6.563 6.563zm0-15c-4.652 0-8.438 3.785-8.438 8.437 0 4.652 3.786 8.437 8.438 8.437 4.653 0 8.438-3.785 8.438-8.437 0-4.652-3.785-8.438-8.438-8.438z"/></g><g><path fill="#90aee8" d="M26.688 30.125H2.313V1.875h2.812v2.127c-.56.325-.938.93-.938 1.623 0 1.034.842 1.875 1.875 1.875a1.877 1.877 0 0 0 1.875-1.875c0-.692-.377-1.298-.937-1.623V1.875h3.75v2.127c-.56.325-.938.93-.938 1.623 0 1.034.842 1.875 1.876 1.875a1.877 1.877 0 0 0 1.874-1.875c0-.692-.377-1.298-.937-1.623V1.875h3.75v2.127c-.56.325-.938.93-.938 1.623 0 1.034.842 1.875 1.876 1.875a1.877 1.877 0 0 0 1.875-1.875c0-.692-.378-1.298-.938-1.623V1.875H22v2.127c-.56.325-.938.93-.938 1.623 0 1.034.842 1.875 1.875 1.875a1.877 1.877 0 0 0 1.875-1.875c0-.692-.377-1.298-.937-1.623V1.875h2.813zM28.563 0H.438v32h28.125z"/></g></g></g></svg>