<?xml version="1.0" encoding="utf-8"?>
<!-- Generator: Adobe Illustrator 16.0.0, SVG Export Plug-In . SVG Version: 6.00 Build 0)  -->
<!DOCTYPE svg PUBLIC "-//W3C//DTD SVG 1.1//EN" "http://www.w3.org/Graphics/SVG/1.1/DTD/svg11.dtd">
<svg version="1.1" id="图层_1" xmlns="http://www.w3.org/2000/svg" xmlns:xlink="http://www.w3.org/1999/xlink" x="0px" y="0px"
	 width="40px" height="40px" viewBox="0 0 40 40" enable-background="new 0 0 40 40" xml:space="preserve">
<g>
	<g>
		<g>
			<path fill="#FFFFFF" d="M35.313,37.656H4.686c-1.293-0.002-2.341-1.05-2.343-2.344h35.312
				C37.653,36.606,36.605,37.654,35.313,37.656L35.313,37.656z M4.765,18.906h4.687v9.375H7.11v2.344h25.783v-2.344h-2.345v-9.375
				h4.687V32.97H4.766L4.765,18.906z M23.975,9.531c0.738,1.928,2.283,3.437,4.228,4.13v14.62H11.797V9.531H23.975z M30.545,2.344
				c2.588,0.003,4.685,2.1,4.688,4.688c-0.002,2.587-2.099,4.685-4.687,4.688c-2.588-0.002-4.685-2.1-4.688-4.688
				C25.861,4.443,27.959,2.347,30.545,2.344L30.545,2.344z M37.577,32.969V16.562h-7.031v-2.5c3.881-0.005,7.025-3.149,7.031-7.03
				C37.572,3.151,34.428,0.005,30.547,0c-3.889,0.005-7.036,3.16-7.031,7.048c0,0.046,0,0.093,0.002,0.14H9.454v9.375H2.422v16.406
				H0v2.344C0.003,37.9,2.1,39.997,4.688,40h30.625c2.588-0.004,4.685-2.101,4.688-4.688V32.97L37.577,32.969z"/>
		</g>
		<g>
			<path fill="#FFFFFF" d="M29.375,4.688h2.344v4.687h-2.344V4.688z"/>
		</g>
		<g>
			<path fill="#FFFFFF" d="M18.828,14.219h7.031v2.344h-7.03L18.828,14.219z"/>
		</g>
		<g>
			<path fill="#FFFFFF" d="M18.828,18.906h7.031v2.344h-7.03L18.828,18.906z"/>
		</g>
		<g>
			<path fill="#FFFFFF" d="M18.828,23.594h7.031v2.344h-7.03L18.828,23.594z"/>
		</g>
		<g>
			<path fill="#FFFFFF" d="M14.14,14.219h2.344v2.344h-2.343L14.14,14.219z"/>
		</g>
		<g>
			<path fill="#FFFFFF" d="M14.14,18.906h2.344v2.344h-2.343L14.14,18.906z"/>
		</g>
		<g>
			<path fill="#FFFFFF" d="M14.14,23.594h2.344v2.344h-2.343L14.14,23.594z"/>
		</g>
	</g>
</g>
</svg>
