<svg xmlns="http://www.w3.org/2000/svg" width="40" height="40" viewBox="0 0 40 40"><g><g><g><path fill="#90aee8" d="M35.313 37.656H4.686a2.346 2.346 0 0 1-2.343-2.343h35.312a2.346 2.346 0 0 1-2.343 2.343zM4.765 18.906h4.687v9.375H7.11v2.344h25.782v-2.344h-2.344v-9.375h4.687V32.97H4.766zm19.21-9.375a7.067 7.067 0 0 0 4.227 4.13v14.62H11.797V9.531zm6.57-7.187a4.693 4.693 0 0 1 4.688 4.687 4.693 4.693 0 0 1-4.687 4.688 4.693 4.693 0 0 1-4.688-4.688 4.693 4.693 0 0 1 4.688-4.687zm7.032 30.625V16.562h-7.031v-2.5a7.04 7.04 0 0 0 7.031-7.03A7.04 7.04 0 0 0 30.547 0a7.04 7.04 0 0 0-7.03 7.188H9.454v9.375H2.422v16.406H0v2.343A4.693 4.693 0 0 0 4.688 40h30.625A4.693 4.693 0 0 0 40 35.312V32.97z"/></g><g><path fill="#90aee8" d="M29.375 4.688h2.344v4.687h-2.344z"/></g><g><path fill="#90aee8" d="M18.828 14.219h7.031v2.344h-7.03z"/></g><g><path fill="#90aee8" d="M18.828 18.906h7.031v2.344h-7.03z"/></g><g><path fill="#90aee8" d="M18.828 23.594h7.031v2.343h-7.03z"/></g><g><path fill="#90aee8" d="M14.14 14.219h2.344v2.344h-2.343z"/></g><g><path fill="#90aee8" d="M14.14 18.906h2.344v2.344h-2.343z"/></g><g><path fill="#90aee8" d="M14.14 23.594h2.344v2.343h-2.343z"/></g></g></g></svg>