<?xml version="1.0" encoding="utf-8"?>
<!-- Generator: Adobe Illustrator 16.0.0, SVG Export Plug-In . SVG Version: 6.00 Build 0)  -->
<!DOCTYPE svg PUBLIC "-//W3C//DTD SVG 1.1//EN" "http://www.w3.org/Graphics/SVG/1.1/DTD/svg11.dtd">
<svg version="1.1" id="图层_1" xmlns="http://www.w3.org/2000/svg" xmlns:xlink="http://www.w3.org/1999/xlink" x="0px" y="0px"
	 width="40px" height="33px" viewBox="0 0 40 33" enable-background="new 0 0 40 33" xml:space="preserve">
<g>
	<g>
		<g>
			<g>
				<path fill="#FFFFFF" d="M34.313,26.852c0.733,0.109,1.416-0.396,1.525-1.13c0.01-0.065,0.016-0.132,0.016-0.198V7.648h1.461
					v22.155c-2.666-0.699-7.92-1.738-13.17-0.84C28.404,26.038,34.24,26.84,34.313,26.852z M21.343,8.49
					c2.96-5.017,9.246-5.305,11.826-5.195v20.771c-1.538-0.063-3.079,0.043-4.594,0.313c-2.912,0.53-5.356,1.676-7.233,3.372
					L21.343,8.49z M18.658,27.75c-1.877-1.695-4.32-2.84-7.233-3.37c-1.515-0.272-3.056-0.377-4.594-0.313V3.293
					c2.58-0.116,8.855,0.16,11.827,5.197V27.75z M2.685,7.649h1.461v17.875c0,0.742,0.602,1.344,1.343,1.344
					c0.066,0,0.132-0.006,0.197-0.016c0.073-0.011,5.904-0.812,10.164,2.111c-5.247-0.896-10.5,0.141-13.165,0.84V7.649z
					 M38.658,4.964h-2.805V2.06c0-0.664-0.485-1.229-1.144-1.327c-0.114-0.017-2.847-0.414-6.135,0.185
					C24.908,1.585,21.982,3.23,20,5.718c-1.984-2.488-4.908-4.133-8.575-4.8c-3.29-0.599-6.02-0.202-6.135-0.185
					C4.633,0.831,4.146,1.396,4.146,2.06v2.903H1.342C0.602,4.963,0,5.564,0,6.305V31.6c0,0.742,0.601,1.342,1.342,1.342
					c0.15,0,0.3-0.025,0.442-0.074c0.1-0.034,10.159-3.467,17.659-0.047c0.354,0.162,0.76,0.162,1.114,0
					c7.48-3.41,17.561,0.013,17.66,0.047c0.699,0.244,1.463-0.123,1.708-0.822C39.975,31.902,40,31.752,40,31.6V6.305
					C40,5.565,39.398,4.963,38.658,4.964L38.658,4.964z"/>
			</g>
		</g>
	</g>
</g>
</svg>
