<svg xmlns="http://www.w3.org/2000/svg" width="40" height="33" viewBox="0 0 40 33"><g><g><g><g><path fill="#90aee8" d="M24.145 28.963zm10.168-2.112a1.342 1.342 0 0 0 1.54-1.328V7.648h1.462v22.155c-2.666-.7-7.92-1.739-13.17-.84 4.26-2.925 10.095-2.123 10.168-2.112zM21.343 8.49c2.96-5.017 9.246-5.305 11.826-5.195v20.772a21.278 21.278 0 0 0-4.594.312c-2.912.53-5.356 1.676-7.233 3.372zm-2.685 19.26c-1.877-1.695-4.32-2.84-7.233-3.37a21.065 21.065 0 0 0-4.594-.313V3.293c2.58-.116 8.855.16 11.827 5.197zM2.685 29.804zm0-22.155h1.461v17.875a1.343 1.343 0 0 0 1.54 1.328c.073-.011 5.904-.812 10.164 2.111-5.247-.897-10.5.14-13.165.84zm35.973-2.685h-2.804V2.06c0-.664-.486-1.229-1.144-1.327-.114-.017-2.846-.414-6.135.185-3.667.667-6.592 2.312-8.575 4.8-1.984-2.488-4.908-4.133-8.575-4.8C8.135.319 5.405.716 5.29.733A1.342 1.342 0 0 0 4.146 2.06v2.903H1.342C.602 4.963 0 5.564 0 6.305V31.6a1.342 1.342 0 0 0 1.784 1.267c.1-.034 10.159-3.467 17.659-.046.354.161.76.161 1.114 0 7.48-3.411 17.56.012 17.66.046A1.34 1.34 0 0 0 40 31.6V6.305c0-.74-.601-1.342-1.342-1.342z"/></g></g></g></g></svg>