<svg xmlns="http://www.w3.org/2000/svg" width="32" height="12" viewBox="0 0 32 12"><g><g clip-path="url(#clip-0c9e62de-a513-40d4-b2a7-ed837f62a208)"><g><path fill="#fff" d="M0 7.677l.02 2.62.003.005c.006.6.495 1.027 1.04 1.02l.008.005 7.444-.06A1.023 1.023 0 0 0 9.53 10.23L9.51 7.606l-.364.005c.113-1.09 1.435-1.346 4.072-1.637l6.345-.055c1.524.148 3.004.423 3.11 1.607l-.204.001.021 2.622.001.004a1.027 1.027 0 0 0 1.043 1.022l.006.005 7.443-.062A1.02 1.02 0 0 0 32 10.083l-.022-2.624-.27.002C31.447 5.866 28.817.72 16.389.674 3.49.627.47 5.964.314 7.674z"/></g></g></g></svg>