<svg xmlns="http://www.w3.org/2000/svg" width="30" height="32" viewBox="0 0 30 32"><g><g><g><path fill="#90aee8" d="M8.125 6.563c0 .516-.42.937-.937.937H5.625V5.625h1.563c.517 0 .937.42.937.938zM3.75 13a.937.937 0 1 0 1.875 0v-2.429l2.187 2.186-1.286 1.261a.937.937 0 1 0 1.314 1.339l1.297-1.274 1.268 1.267a.935.935 0 0 0 1.325 0 .937.937 0 0 0 0-1.325l-1.254-1.255 1.18-1.159a.937.937 0 1 0-1.313-1.338L9.15 11.444 7.08 9.375h.108A2.816 2.816 0 0 0 10 6.562 2.816 2.816 0 0 0 7.188 3.75h-2.5a.937.937 0 0 0-.938.937z"/></g><g><path fill="#90aee8" d="M27.813 29.188c0 .516-.42.937-.938.937H17.5a.939.939 0 0 1-.937-.938v-9.5c0-.516.42-.937.937-.937a2.816 2.816 0 0 0 2.813-2.813V15h3.75v.938a2.816 2.816 0 0 0 2.812 2.812c.517 0 .938.42.938.938zM1.875 25V1.875h13.75v4.688c0 .517.42.937.938.937h4.687v1.875h-2.812a.938.938 0 0 0-.938.938v3.75c0 .517.42.937.938.937v.938c0 .517-.42.937-.938.937a2.816 2.816 0 0 0-2.812 2.813V25zM17.5 3.2l2.425 2.425H17.5zm7.5 9.753h-5.625V11.25H25zm1.875 3.922a.939.939 0 0 1-.937-.938V15c.518 0 .937-.42.937-.938v-3.75a.937.937 0 0 0-.937-.937h-2.813c0-1.087-.002-2.732-.003-2.745.003-.27-.076-.535-.271-.73L17.226.275a.936.936 0 0 0-.62-.274L.936 0A.937.937 0 0 0 0 .937v25c0 .518.42.938.938.938h13.75v2.313A2.816 2.816 0 0 0 17.5 32h9.375a2.816 2.816 0 0 0 2.813-2.813v-9.5a2.816 2.816 0 0 0-2.813-2.812z"/></g><g><path fill="#90aee8" d="M24.563 23.447h-1.438v-1.384a.937.937 0 1 0-1.875 0v1.384h-1.437a.937.937 0 1 0 0 1.875h1.437v1.49a.938.938 0 0 0 1.875 0v-1.49h1.438a.937.937 0 1 0 0-1.875z"/></g><g><path fill="#90aee8" d="M11.875 17.5H4.688a.938.938 0 0 0 0 1.875h7.187a.937.937 0 1 0 0-1.875z"/></g><g><path fill="#90aee8" d="M9.375 21.25H4.688a.938.938 0 0 0 0 1.875h4.687a.937.937 0 1 0 0-1.875z"/></g></g></g></svg>