<svg xmlns="http://www.w3.org/2000/svg" width="22" height="28" viewBox="0 0 22 28"><defs><mask id="hobyb" width="2" height="2" x="-1" y="-1"><path fill="#fff" d="M4 3h14v20H4z"/><path d="M6 23a2 2 0 0 1-2-2V5a2 2 0 0 1 2-2h10a2 2 0 0 1 2 2v16a2 2 0 0 1-2 2z"/></mask><filter id="hobya" width="44" height="51" x="-11" y="-12" filterUnits="userSpaceOnUse"><feOffset dy="1" in="SourceGraphic" result="FeOffset1025Out"/><feGaussianBlur in="FeOffset1025Out" result="FeGaussianBlur1026Out" stdDeviation="2 2"/></filter></defs><g><g><g><g filter="url(#hobya)"><path fill="none" d="M6 23a2 2 0 0 1-2-2V5a2 2 0 0 1 2-2h10a2 2 0 0 1 2 2v16a2 2 0 0 1-2 2z" mask="url(&quot;#hobyb&quot;)"/><path fill-opacity=".16" d="M6 23a2 2 0 0 1-2-2V5a2 2 0 0 1 2-2h10a2 2 0 0 1 2 2v16a2 2 0 0 1-2 2z"/></g><path fill="#fff" d="M6 23a2 2 0 0 1-2-2V5a2 2 0 0 1 2-2h10a2 2 0 0 1 2 2v16a2 2 0 0 1-2 2z"/></g><g><path fill="#90aee8" d="M9 18a1 1 0 0 1-1-1V9a1 1 0 0 1 2 0v8a1 1 0 0 1-1 1z"/></g><g><path fill="#90aee8" d="M13 18a1 1 0 0 1-1-1V9a1 1 0 0 1 2 0v8a1 1 0 0 1-1 1z"/></g></g></g></svg>