<svg xmlns="http://www.w3.org/2000/svg" width="31" height="32" viewBox="0 0 31 32"><g><g clip-path="url(#clip-7c867a0e-b6ee-4666-a917-8d3ed3d987b3)"><g><g><g><path fill="#90aee8" d="M23.853 15.454l-1.431 1.432-1.432-1.432 1.432-1.431z"/></g><g><path fill="#90aee8" d="M26.717 12.591l-1.432 1.432-1.431-1.432 1.431-1.431z"/></g><g><path fill="#90aee8" d="M15.013 18.449L4.325 29.137l-1.66-1.659 10.69-10.687zM27.285 0L-.197 27.478 4.325 32l12.119-12.12 1.492 1.492 3.055-3.051-1.436-1.436-1.62 1.62-3.15-3.15L27.22 2.924a5.466 5.466 0 0 1-.528 6.824l1.475 1.385A7.49 7.49 0 0 0 28 .71z"/></g></g></g></g></g></svg>