<svg xmlns="http://www.w3.org/2000/svg" width="32" height="32" viewBox="0 0 32 32"><g><g clip-path="url(#clip-02ae64bc-85b2-4458-b2c0-846f02b020bc)"><g><path fill="#90aee8" d="M16 29.333C8.648 29.333 2.667 23.352 2.667 16S8.648 2.667 16 2.667 29.333 8.648 29.333 16 23.352 29.333 16 29.333zM16 0C7.177 0 0 7.178 0 16s7.177 16 16 16 16-7.178 16-16S24.823 0 16 0z"/></g><g><path fill="#90aee8" d="M16 18.667A2.67 2.67 0 0 1 13.333 16 2.67 2.67 0 0 1 16 13.333 2.67 2.67 0 0 1 18.667 16 2.67 2.67 0 0 1 16 18.667zm5.158-4a5.277 5.277 0 0 0-.569-1.37l1.068-1.068a1.333 1.333 0 1 0-1.886-1.886l-1.067 1.068a5.3 5.3 0 0 0-1.37-.568v-1.51a1.334 1.334 0 0 0-2.667 0v1.509a5.267 5.267 0 0 0-1.37.569l-1.067-1.068a1.334 1.334 0 0 0-1.886 1.885l1.068 1.068a5.3 5.3 0 0 0-.569 1.37h-1.51a1.334 1.334 0 0 0 0 2.667h1.509c.126.487.318.946.569 1.37l-1.068 1.068a1.333 1.333 0 1 0 1.886 1.885l1.067-1.068a5.3 5.3 0 0 0 1.37.569v1.51a1.334 1.334 0 0 0 2.667 0v-1.509a5.267 5.267 0 0 0 1.37-.569l1.067 1.068a1.33 1.33 0 0 0 1.886 0c.52-.52.52-1.364 0-1.885l-1.068-1.068a5.3 5.3 0 0 0 .569-1.37h1.51a1.334 1.334 0 0 0 0-2.667z"/></g></g></g></svg>