<svg xmlns="http://www.w3.org/2000/svg" width="32" height="32" viewBox="0 0 32 32"><g><g clip-path="url(#clip-d73afa23-89c7-43e6-a3ba-3483eff640c3)"><g><path fill="#90aee8" d="M9.675 10.157l.7.786.7-.786.05-.054a1.246 1.246 0 0 1 2.125.88c0 .332-.13.644-.364.88l-2.511 2.51-2.51-2.51a1.236 1.236 0 0 1-.365-.88c0-.333.13-.645.365-.88a1.24 1.24 0 0 1 .88-.364 1.24 1.24 0 0 1 .93.418zM6.54 8.777a3.099 3.099 0 0 0-.914 2.206 3.1 3.1 0 0 0 .914 2.205l3.836 3.837 3.836-3.837c.59-.589.914-1.372.914-2.205s-.324-1.617-.914-2.206a3.125 3.125 0 0 0-3.836-.454 3.125 3.125 0 0 0-3.836.454z"/></g><g><path fill="#90aee8" d="M28.25 30.125v-7.563h1.875v7.563zm-7.5-7.563h1.875v7.563H20.75zm-1.875 7.563h-3.75V18.75h-9.5v11.375h-3.75V7.632l8.5-5.41 8.5 5.41zm-5.625 0H7.5v-9.5h5.75zm7.5-9.438v-7.5h9.375v7.5zm5.625 1.875v7.563H24.5v-7.563zm3.75-14.508v3.258H20.75V8.055zM20.085 6.18L10.375 0 0 6.602V32h32V6.18z"/></g></g></g></svg>