<?xml version="1.0" encoding="utf-8"?>
<!-- Generator: Adobe Illustrator 16.0.0, SVG Export Plug-In . SVG Version: 6.00 Build 0)  -->
<!DOCTYPE svg PUBLIC "-//W3C//DTD SVG 1.1//EN" "http://www.w3.org/Graphics/SVG/1.1/DTD/svg11.dtd">
<svg version="1.1" id="图层_1" xmlns="http://www.w3.org/2000/svg" xmlns:xlink="http://www.w3.org/1999/xlink" x="0px" y="0px"
	 width="30px" height="40px" viewBox="0 0 30 40" enable-background="new 0 0 30 40" xml:space="preserve">
<g>
	<g>
		<g>
			<g>
				<g>
					<path fill="#FFFFFF" d="M14.635,15.367c-0.489-0.488-1.28-0.489-1.77-0.002L8.75,19.482l-1.615-1.617
						c-0.488-0.488-1.28-0.488-1.768,0c-0.488,0.488-0.488,1.279,0,1.768l0,0l2.5,2.5C8.11,22.378,8.43,22.5,8.75,22.5
						s0.64-0.123,0.885-0.365l5-5C15.123,16.647,15.124,15.855,14.635,15.367C14.635,15.367,14.635,15.367,14.635,15.367z"/>
				</g>
			</g>
		</g>
		<g>
			<g>
				<g>
					<path fill="#FFFFFF" d="M14.635,25.367c-0.489-0.488-1.28-0.489-1.77-0.002L8.75,29.482l-1.615-1.615
						c-0.488-0.488-1.28-0.488-1.768,0c-0.488,0.488-0.488,1.279,0,1.768l2.5,2.5c0.489,0.484,1.277,0.484,1.767,0l5.001-5
						C15.123,26.646,15.124,25.855,14.635,25.367C14.635,25.367,14.635,25.367,14.635,25.367z"/>
				</g>
			</g>
		</g>
		<g>
			<g>
				<g>
					<path fill="#FFFFFF" d="M23.75,17.5h-5c-0.69,0-1.25,0.56-1.25,1.25S18.06,20,18.75,20h5c0.69,0,1.25-0.56,1.25-1.25
						S24.44,17.5,23.75,17.5z"/>
				</g>
			</g>
		</g>
		<g>
			<g>
				<g>
					<path fill="#FFFFFF" d="M23.75,27.5h-5c-0.69,0-1.25,0.56-1.25,1.25S18.06,30,18.75,30h5c0.69,0,1.25-0.56,1.25-1.25
						S24.44,27.5,23.75,27.5z"/>
				</g>
			</g>
		</g>
		<g>
			<g>
				<g>
					<path fill="#FFFFFF" d="M27.5,37.5h-25v-30h5v1.25C7.5,9.44,8.06,10,8.75,10h12.5c0.689,0,1.25-0.56,1.25-1.25V7.5h5V37.5z
						 M10,5h2.5c0.69,0,1.25-0.56,1.25-1.25c0-0.69,0.56-1.25,1.25-1.25s1.25,0.56,1.25,1.25C16.25,4.44,16.811,5,17.5,5H20v2.5H10
						V5z M27.5,5h-5V3.75c0-0.69-0.561-1.25-1.25-1.25h-2.712C18.006,1.003,16.59,0.002,15,0c-1.589,0.002-3.004,1.003-3.537,2.5
						H8.75C8.06,2.5,7.5,3.06,7.5,3.75V5h-5C1.12,5.002,0.002,6.12,0,7.5v30C0,38.877,1.123,40,2.5,40h25c1.377,0,2.5-1.123,2.5-2.5
						v-30C30,6.123,28.877,5,27.5,5z"/>
				</g>
			</g>
		</g>
	</g>
</g>
</svg>
