<svg xmlns="http://www.w3.org/2000/svg" width="30" height="40" viewBox="0 0 30 40"><g><g><g><g><g><path fill="#90aee8" d="M14.635 15.367a1.254 1.254 0 0 0-1.77-.002L8.75 19.482l-1.615-1.617a1.25 1.25 0 0 0-1.768 1.768l2.5 2.5c.243.245.563.367.883.367.32 0 .64-.123.885-.365l5-5a1.25 1.25 0 0 0 0-1.768z"/></g></g></g><g><g><g><path fill="#90aee8" d="M14.635 25.367a1.254 1.254 0 0 0-1.77-.002L8.75 29.483l-1.615-1.616a1.25 1.25 0 0 0-1.768 1.768l2.5 2.5a1.256 1.256 0 0 0 1.767 0l5.001-5a1.25 1.25 0 0 0 0-1.768z"/></g></g></g><g><g><g><path fill="#90aee8" d="M23.75 17.5h-5a1.25 1.25 0 0 0 0 2.5h5a1.25 1.25 0 0 0 0-2.5z"/></g></g></g><g><g><g><path fill="#90aee8" d="M23.75 27.5h-5a1.25 1.25 0 0 0 0 2.5h5a1.25 1.25 0 0 0 0-2.5z"/></g></g></g><g><g><g><path fill="#90aee8" d="M27.5 37.5h-25v-30h5v1.25c0 .69.56 1.25 1.25 1.25h12.5c.69 0 1.25-.56 1.25-1.25V7.5h5zM10 5h2.5c.69 0 1.25-.56 1.25-1.25a1.25 1.25 0 0 1 2.5 0c0 .69.56 1.25 1.25 1.25H20v2.5H10zm17.5 0h-5V3.75c0-.69-.56-1.25-1.25-1.25h-2.712A3.76 3.76 0 0 0 15 0a3.76 3.76 0 0 0-3.537 2.5H8.75c-.69 0-1.25.56-1.25 1.25V5h-5A2.504 2.504 0 0 0 0 7.5v30C0 38.877 1.123 40 2.5 40h25c1.377 0 2.5-1.123 2.5-2.5v-30C30 6.123 28.877 5 27.5 5z"/></g></g></g></g></g></svg>