<svg xmlns="http://www.w3.org/2000/svg" width="28" height="32" viewBox="0 0 28 32"><g><g clip-path="url(#clip-af80133f-1ed5-483b-af27-7a28ab80f55d)"><g><path fill="#90aee8" d="M21.531 24.5a.939.939 0 0 1 0-1.875.939.939 0 0 1 0 1.875zm0-3.75a2.816 2.816 0 0 0-2.812 2.812 2.816 2.816 0 0 0 2.812 2.813 2.816 2.816 0 0 0 2.813-2.813 2.816 2.816 0 0 0-2.813-2.812z"/></g><g><path fill="#90aee8" d="M24.643 27.064l-3.112 2.523-3.112-2.523a4.692 4.692 0 0 1-1.575-3.502 4.693 4.693 0 0 1 4.687-4.687 4.693 4.693 0 0 1 4.688 4.687c0 1.336-.574 2.611-1.576 3.502zM11.25 9.375H1.875v-7.5H3.75v3.75h5.625v-3.75h1.875zm-5.625-7.5H7.5V3.75H5.625zM21.531 17a6.57 6.57 0 0 0-5.928 3.75H4.593a2.816 2.816 0 0 1-2.812-2.813 2.816 2.816 0 0 1 2.813-2.812h18.812a4.693 4.693 0 0 0 4.688-4.688 4.693 4.693 0 0 0-4.688-4.687H13.125V0H0v11.25h13.125V7.625h10.281a2.816 2.816 0 0 1 2.813 2.812 2.816 2.816 0 0 1-2.813 2.813H4.594a4.693 4.693 0 0 0-4.688 4.687 4.693 4.693 0 0 0 4.688 4.688h10.442a6.568 6.568 0 0 0 2.156 5.858L21.532 32l4.338-3.518a6.568 6.568 0 0 0 2.224-4.92A6.57 6.57 0 0 0 21.53 17z"/></g></g></g></svg>