<svg xmlns="http://www.w3.org/2000/svg" width="32" height="21" viewBox="0 0 32 21"><g><g><path fill="#90aee8" d="M30.125 18.75h-7.563V15c0-2.068 1.71-3.75 3.813-3.75a3.754 3.754 0 0 1 3.75 3.75zm-3.75-13.125c1.034 0 1.875.841 1.875 1.875a1.877 1.877 0 0 1-1.875 1.875A1.877 1.877 0 0 1 24.5 7.5c0-1.034.841-1.875 1.875-1.875zM20.687 18.75h-9.375v-4.688A4.693 4.693 0 0 1 16 9.375a4.693 4.693 0 0 1 4.688 4.688v4.687zM16 1.875a2.816 2.816 0 0 1 2.813 2.813A2.816 2.816 0 0 1 16 7.5a2.816 2.816 0 0 1-2.813-2.813A2.816 2.816 0 0 1 16 1.876zM9.437 18.75H1.875V15a3.754 3.754 0 0 1 3.75-3.75c2.102 0 3.813 1.682 3.813 3.75zM5.626 5.625c1.034 0 1.875.841 1.875 1.875a1.877 1.877 0 0 1-1.875 1.875A1.877 1.877 0 0 1 3.75 7.5c0-1.034.841-1.875 1.875-1.875zm23.47 4.453a3.736 3.736 0 0 0 1.03-2.578 3.754 3.754 0 0 0-3.75-3.75 3.754 3.754 0 0 0-3.75 3.75c0 .994.39 1.898 1.023 2.57a5.765 5.765 0 0 0-1.644 1.344 6.604 6.604 0 0 0-2.962-3.165 4.677 4.677 0 0 0 1.646-3.562A4.693 4.693 0 0 0 16 0a4.693 4.693 0 0 0-4.687 4.687c0 1.425.639 2.702 1.645 3.562a6.604 6.604 0 0 0-2.962 3.165 5.765 5.765 0 0 0-1.644-1.344A3.735 3.735 0 0 0 9.375 7.5a3.754 3.754 0 0 0-3.75-3.75 3.754 3.754 0 0 0-3.75 3.75c0 .998.393 1.905 1.03 2.578A5.63 5.63 0 0 0 0 15v4.688c0 .517.42.937.938.937h30.125c.517 0 .937-.42.937-.938V15a5.63 5.63 0 0 0-2.905-4.922z"/></g></g></svg>