<svg xmlns="http://www.w3.org/2000/svg" width="26" height="20" viewBox="0 0 26 20"><g><g opacity=".5"><path fill="#fff" d="M25.243 1.386a.995.995 0 0 0-.357-.072.85.85 0 0 0-.643.272l-5.757 5.743V4.972c0-1.134-.403-2.103-1.208-2.908-.804-.804-1.773-1.207-2.907-1.207H4.314c-1.133 0-2.102.403-2.907 1.207C.602 2.87.2 3.838.2 4.972v10.057c0 1.133.402 2.102 1.207 2.907.805.804 1.774 1.207 2.907 1.207h10.057c1.134 0 2.103-.403 2.907-1.207.805-.805 1.208-1.774 1.208-2.907v-2.372l5.757 5.757a.85.85 0 0 0 .643.272.997.997 0 0 0 .357-.072c.371-.162.557-.442.557-.842V2.229c0-.4-.186-.681-.557-.843z"/></g></g></svg>