<?xml version="1.0"?>
<svg xmlns="http://www.w3.org/2000/svg" width="32" height="32" viewBox="0 0 512 512">
    <path fill="#097ade" d="m451.7 99.72-71.4-71.44c-15.6-15.55-46.3-28.28-68.3-28.28h-240c-22 0-40 18-40 40v432c0 22 18 40 40 40h368c22 0 40-18 40-40v-304c0-22-12.7-52.7-28.3-68.28z"/>
    <path fill="#fff"
          d="m448 472c0 4.3-3.7 8-8 8h-368c-4.34 0-8-3.7-8-8v-432c0-4.34 3.66-8 8-8h240c2.4 0 5.1.30 8 .85v127.2h127.1c.6 2.9.9 5.6.9 8v304z"/>
    <path fill="#fff" d="m429.1 122.3c1.6 1.6 3.1 3.5 4.6 5.7h-81.7v-81.73c2.2 1.52 4.1 3.08 5.7 4.64l71.4 71.39z"/>
</svg>